<svg viewBox="0 0 240 200" xmlns="http://www.w3.org/2000/svg" role="img" aria-label="高温・低温物との接触のイメージ図">
  <rect x="0" y="0" width="240" height="200" rx="16" fill="#FBEAE4"/>
  <rect x="90" y="110" width="70" height="20" rx="4" fill="#6B6B6B"/>
  <g fill="#D0453C">
    <path d="M100 108 C95 95 108 92 105 80 C118 88 118 100 110 108 Z"/>
    <path d="M130 108 C125 98 135 95 132 85 C142 92 142 102 136 108 Z"/>
  </g>
  <circle cx="60" cy="130" r="11" fill="#3B2A1A"/>
  <path d="M52 119 A8 6 0 0 1 68 119 Z" fill="#FFD447"/>
  <line x1="60" y1="141" x2="60" y2="165" stroke="#3B2A1A" stroke-width="8" stroke-linecap="round"/>
  <line x1="60" y1="146" x2="46" y2="160" stroke="#3B2A1A" stroke-width="6" stroke-linecap="round"/>
  <line x1="60" y1="146" x2="86" y2="118" stroke="#3B2A1A" stroke-width="6" stroke-linecap="round"/>
  <circle cx="88" cy="116" r="6" fill="#E7C9A8"/>
  <g stroke="#D0453C" stroke-width="2">
    <line x1="95" y1="105" x2="90" y2="112"/>
    <line x1="100" y1="100" x2="95" y2="108"/>
  </g>
</svg>
